<svg width="58" height="81" viewBox="0 0 58 81" fill="none" xmlns="http://www.w3.org/2000/svg">
<path d="M54.2957 24.1727C55.3116 22.5601 55.4026 20.6057 54.8885 19.0244C54.2946 17.1963 52.7556 15.4385 50.5168 14.9387C51.2034 12.7498 50.4505 10.538 49.1643 9.10975C47.8782 7.68132 45.7571 6.70137 43.5086 7.15536C43.2455 4.87647 41.6579 3.16219 39.902 2.38041C38.1459 1.59862 35.8096 1.56609 33.9403 2.89552C32.7736 0.920388 30.6261 0 28.7041 0C26.7822 0 24.6346 0.920545 23.4673 2.89521C21.5981 1.56609 19.2614 1.59862 17.5059 2.38025C15.7498 3.16204 14.1622 4.87631 13.8992 7.1552C11.6509 6.70137 9.52916 7.68147 8.24342 9.10959C6.9572 10.5379 6.20433 12.7497 6.89089 14.9385C4.65223 15.4385 3.11301 17.1963 2.51916 19.0242C2.00546 20.6056 2.09613 22.5601 3.11206 24.1726C1.28857 24.9168 0 26.7084 0 28.7962C0 30.9343 1.35112 32.7618 3.24407 33.472L7.99435 66.0471C8.09413 66.7307 8.68122 67.2232 9.35238 67.223C9.41838 67.223 9.48532 67.2183 9.55242 67.2084C10.3034 67.0989 10.8236 66.4013 10.714 65.6503L6.06777 33.7888H15.4646L18.5677 77.7092H12.4721L11.5153 71.1472C11.4056 70.3962 10.7071 69.8764 9.95722 69.9858C9.20624 70.0953 8.68609 70.7929 8.79562 71.5437L9.92391 79.2816C10.0224 79.957 10.6015 80.4575 11.2838 80.4575H20.04C20.0403 80.4575 20.0406 80.4575 20.0409 80.4575C20.0413 80.4575 20.0419 80.4575 20.0422 80.4575H37.3654C37.3657 80.4575 37.3663 80.4575 37.3666 80.4575C37.3669 80.4575 37.3671 80.4575 37.3676 80.4575H46.1237C46.806 80.4575 47.385 79.957 47.4836 79.2816L52.1923 46.9921C52.3018 46.2411 51.7817 45.5436 51.0307 45.434C50.2795 45.3247 49.5823 45.8445 49.4726 46.5955L44.9354 77.7092H38.8398L41.9429 33.7888H51.3398L50.274 41.0988C50.1645 41.8497 50.6847 42.5473 51.4356 42.6567C52.1866 42.766 52.884 42.2462 52.9937 41.4952L54.1637 33.4721C56.0568 32.7622 57.4077 30.9343 57.4077 28.7963C57.4077 26.7084 56.119 24.9168 54.2957 24.1727ZM27.3299 77.709H21.3231L18.22 33.7886H27.3297L27.3299 77.709ZM36.0848 77.709H30.078V33.7886H39.1877L36.0848 77.709ZM52.7596 31.011C52.7528 31.0119 52.7461 31.0117 52.7393 31.0125C52.6785 31.0213 52.6246 31.0276 52.5741 31.032C52.5215 31.0359 52.4692 31.04 52.4156 31.04C52.4156 31.04 28.7042 31.04 28.7035 31.04H4.99244C4.88433 31.04 4.7759 31.0281 4.66888 31.0125C4.66213 31.0116 4.65537 31.0117 4.64861 31.011C3.57438 30.8445 2.74844 29.9161 2.74844 28.7962C2.74859 27.5588 3.75525 26.5523 4.9926 26.5523H6.30396H13.1092C13.7997 26.5523 14.4066 26.0056 14.4762 25.3188C14.5513 24.5797 13.9886 23.8864 13.2497 23.811C13.2035 23.8064 13.1567 23.8039 13.1092 23.8039H6.6338C4.9035 22.8422 4.7319 21.109 5.1334 19.8736C5.55391 18.5797 6.80399 17.2138 8.94129 17.6205C9.51455 17.7297 10.096 17.464 10.3883 16.9576C10.6806 16.4515 10.6205 15.8158 10.239 15.3732C8.81762 13.7249 9.37595 11.9595 10.2863 10.9486C11.1968 9.93774 12.8938 9.19743 14.6817 10.439C15.1618 10.7723 15.8001 10.7657 16.2733 10.4221C16.7461 10.0785 16.9499 9.47338 16.7812 8.91379C16.1531 6.82976 17.3811 5.44423 18.6241 4.89108C19.8665 4.33778 21.7186 4.35224 22.8467 6.21344C23.1496 6.71316 23.7352 6.96679 24.3075 6.84516C24.8792 6.72369 25.3114 6.25367 25.3851 5.67381C25.6587 3.51466 27.3443 2.74843 28.7046 2.74843C30.0648 2.74843 31.7505 3.51451 32.0244 5.67381C32.0979 6.25367 32.5302 6.72353 33.1021 6.84516C33.6744 6.96679 34.2599 6.713 34.5629 6.21344C35.6908 4.35208 37.5425 4.33794 38.785 4.89124C40.0278 5.44454 41.2559 6.83007 40.628 8.91395C40.4592 9.47353 40.663 10.0787 41.1358 10.4222C41.6092 10.7659 42.2472 10.7725 42.7274 10.4392C44.5158 9.19743 46.2125 9.93805 47.1228 10.9488C48.033 11.9599 48.5915 13.725 47.1701 15.3733C46.7884 15.816 46.7286 16.4516 47.0209 16.9578C47.3132 17.464 47.8939 17.7298 48.4678 17.6206C50.6044 17.2136 51.8552 18.58 52.2757 19.8737C52.6769 21.109 52.5056 22.8423 50.7753 23.8041C50.7753 23.8041 18.6322 23.8041 18.6062 23.8041C17.8689 23.8041 17.232 24.4424 17.232 25.1783C17.232 25.9244 17.86 26.5525 18.6062 26.5525H51.1049H52.4162C53.6536 26.5525 54.6601 27.5591 54.6601 28.7963C54.6597 29.9163 53.8338 30.8447 52.7596 31.011Z" fill="#F40000"/>
</svg>
